<?xml version="1.0" encoding="UTF-8"?>
<svg xmlns="http://www.w3.org/2000/svg" version="1.1" viewBox="0 0 566.93 566.93">
  <defs>
    <style>
      .cls-1 {
        fill: none;
        stroke: #df2226;
        stroke-miterlimit: 10;
        stroke-width: 2.04px;
      }

      .cls-2 {
        fill: #231f20;
      }

      .cls-3 {
        fill: #313436;
      }

      .cls-4 {
        fill: #df2226;
      }
    </style>
  </defs>
  <!-- Generator: Adobe Illustrator 28.7.1, SVG Export Plug-In . SVG Version: 1.2.0 Build 142)  -->
  <g>
    <g id="Layer_1">
      <g>
        <g>
          <path class="cls-2" d="M75.12,421.96h-.27l-.62,5.99h-4.54v-88.71h5.45v25.75l-.27,11.54c5.98-5.05,13.18-9.27,20.38-9.27,15.88,0,23.71,11.89,23.71,30.2,0,20.11-12.13,31.97-26.09,31.97-5.65,0-12.18-2.93-17.76-7.47ZM113.25,397.5c0-14.55-5.18-25.4-18.84-25.4-5.87,0-12.33,3.45-19.26,9.77v35.12c6.46,5.55,12.95,7.62,17.44,7.62,12.04,0,20.67-11.05,20.67-27.1Z"/>
          <path class="cls-2" d="M131.55,398.46c0-19.31,12.55-31.2,25.82-31.2,14.03,0,22.66,9.99,22.66,27.4,0,1.48-.05,2.96-.31,4.44h-42.58c.2,14.94,8.95,25.62,22.29,25.62,6.41,0,11.47-2.12,15.91-5.25l2.24,4.14c-4.66,2.91-9.99,5.82-18.67,5.82-15.12,0-27.37-11.62-27.37-30.97ZM174.9,394.61c0-15.12-6.86-22.64-17.49-22.64-10.01,0-19.06,8.48-20.3,22.64h37.78Z"/>
          <path class="cls-2" d="M188.71,421.24l3.16-3.97c5.01,4.19,10.4,7.5,18.82,7.5,9.32,0,14.16-5.45,14.16-11.69,0-7.42-7.67-10.68-14.5-13.15-8.93-3.17-18.87-6.81-18.87-16.92,0-8.53,6.76-15.76,19.09-15.76,6.34,0,12.6,2.63,16.92,6.14l-2.93,3.92c-4-2.98-8.2-5.4-14.13-5.4-9.24,0-13.42,5.31-13.42,10.78,0,6.76,6.98,9.32,14.03,11.99,9.17,3.49,19.33,6.51,19.33,18.05,0,8.93-7.13,16.7-19.95,16.7-8.78,0-16.4-3.67-21.7-8.19Z"/>
          <path class="cls-2" d="M244.94,411.6v-38.1h-9.25v-4.24l9.37-.52.69-17.14h4.64v17.14h17.16v4.76h-17.16v38.51c0,7.56,1.9,12.66,10.06,12.66,2.19,0,5.28-.94,7.42-1.87l1.43,4.41c-3.43,1.21-7.21,2.22-9.67,2.22-11.37,0-14.7-7.23-14.7-17.83Z"/>
          <path class="cls-3" d="M274.12,422.82l5.01-6.68c5.21,4.19,10.49,7.1,17.69,7.1,7.87,0,11.78-4.19,11.78-9.31,0-6.17-7.08-8.89-13.71-11.36-8.4-3.07-17.87-7.2-17.87-17.31,0-9.59,7.68-17.01,20.67-17.01,7.46,0,13.99,3.06,18.64,6.74l-4.85,6.5c-4.13-3.05-8.36-5.33-13.67-5.33-7.55,0-11.04,4.03-11.04,8.6,0,5.7,6.52,7.87,13.3,10.4,8.65,3.26,18.28,6.77,18.28,18.18,0,9.72-7.72,17.82-21.87,17.82-8.52,0-16.73-3.61-22.36-8.32Z"/>
          <path class="cls-3" d="M332.44,341.82h10.14v24.03l-.36,12.32c5.6-5.41,11.67-9.92,19.9-9.92,12.63,0,18.3,8.15,18.3,23.44v37.98h-10.14v-36.67c0-11.17-3.38-15.94-11.31-15.94-6.13,0-10.37,3.13-16.38,9.21v43.41h-10.14v-87.85Z"/>
          <path class="cls-3" d="M397.66,350.85c0-3.98,3.06-6.55,7.01-6.55s7.01,2.57,7.01,6.55-3.06,6.55-7.01,6.55-7.01-2.72-7.01-6.55ZM399.51,369.72h10.14v59.94h-10.14v-59.94Z"/>
          <path class="cls-3" d="M429.84,369.72h8.38l.86,10.92h.34c4.17-7.61,10.3-12.4,17.04-12.4,2.65,0,4.52.34,6.4,1.23l-1.89,8.9c-2.06-.65-3.41-.99-5.81-.99-5.06,0-11.11,3.65-15.16,13.79v38.49h-10.14v-59.94Z"/>
          <path class="cls-3" d="M474.41,411.13v-33.14h-8.92v-7.68l9.37-.58,1.22-16.81h8.47v16.81h16.24v8.26h-16.24v33.32c0,7.33,2.36,11.57,9.27,11.57,2.13,0,4.88-.8,6.83-1.61l1.96,7.65c-3.36,1.14-7.38,2.22-11.12,2.22-12.76,0-17.08-8.08-17.08-20.01Z"/>
        </g>
        <g>
          <path class="cls-4" d="M389.03,269.58c-27.15-5.09-52.92.7-75.87,14.32-16.94,10.05-29.54,26.57-47.15,36.2-3.49,2.16-4.87,1.07-6.19-2.26-4.21-10.63-4.25-10.54,5.85-16.13,46.53-25.49,75.33-69.9,99.13-115.72,1.45,9.25-5.49,16.86-1.79,25.94,7.2,17.66,11.68,27.17,20.53,44.05,2.03,3.88,7.04,11.11,5.38,13.65l.11-.05ZM329.47,262.48c12.89-3.92,24.49-7,37.03-8.31-4.34-10.54-8.5-20.64-13.17-31.98-7.28,14.3-14.32,27.15-23.86,40.29Z"/>
          <path class="cls-3" d="M343.87,152.29c.32,33.69,18.6,36.06,3.97,54.57-6.69-18.81-13.31-37.48-13.64-57.4-.52-11.61,20.12,1.22,26.32,1.76,7.23,2.88,18.71-23.46,18.71-23.46,1.93-3.03.45-3.93-1.59-5.84-21.11-19.83-51.73-6.29-66.48-22.75,13.67,4.91,27.34-1.31,41.51,3.84,12.94,4.7,23.09,8.9,35.04,15.66,2.87,1.62,3.02,2.98,1.53,5.72-6.66,12.24-15.19,23.72-19.55,36.95-2.36,7.15-19.47-7.27-25.82-9.05Z"/>
          <path class="cls-3" d="M225.12,130.95c30.95,7.63,54.85-1.54,72.08-27.57,2.94,32.87-47.45,53.61-72.08,27.57Z"/>
          <path class="cls-4" d="M388.92,269.63l.43-.19c-.08.02-.36.14-.43.19Z"/>
          <g>
            <path class="cls-3" d="M197.98,215.79c.29.11.57.23.86.35,1.15.08,2.23.14,3,.18l-.92-.18.81-.04c-.54-.11-2.12-.22-3.75-.31Z"/>
            <path class="cls-3" d="M195.7,211.39c.3-.05.35-.09.25-.13-.45.05-.65.1-.25.13Z"/>
            <path class="cls-3" d="M200.14,211.2l-.85-.22c-.24.03-.74.06-1.31.11.25.03.48.06.7.08.66.04,1.2.06,1.46.03Z"/>
            <path class="cls-3" d="M192.83,208.25c.39-.07,1.05-.1-.32-.15-.7.03.07.11.32.15Z"/>
            <path class="cls-3" d="M196.88,215.37c.14.05.28.11.42.16.16,0,.3,0,.38.01.04-.08-.3-.13-.8-.17Z"/>
            <path class="cls-3" d="M196.69,211.19c.88.06,1.79.1,2.37.02-.12-.01-.25-.03-.38-.04-.32-.02-.66-.04-1.02-.06-.33.03-.66.05-.97.08Z"/>
            <path class="cls-3" d="M201.14,203.13l1.1.22c.15,0,.27,0,.4.01-.49-.14-.99-.27-1.48-.37-.17.06-.5.1-1.34.08l.22-.02c-.23-.14-1.83.04-1.57.15.74-.12,2.33.21,2.67-.07Z"/>
            <path class="cls-3" d="M193.31,214.02s-.04,0-.05,0h.09c.28-.07.45-.11-.89-.2l3.97.13-3.09.07s-.03,0-.04,0c1.02.2,5.31.06,7.11.09l-7.06-.43c.42.01,2.68.05,2.95.05-2.1-.04-2.37-.53-2.08-.78l.02.04c.72.05,1.31-.16.57-.25.42.01.29.03.31.07,1.58-.16-3.18-.21-1.32-.38-.2.15.65.18,1.48.17-.76-.12.07-.41-2.4-.35.52-.08.2-.15,1.45-.14l-1.47-.3c.25.02.98.04,1.15-.05-.33.17,1.98.33.36.42,1.53,0,2.34-.06,3.63.02-.73-.33-3.33-.51-5.1-.71l1.1-.29h-.7s1.76-.06,1.76-.06c-.4-.04-.75-.06-.59-.07.16,0,.39,0,.65.02-.09-.03-.24-.06-.43-.07.92-.01,1.98.04,2.94.09.11,0,.22-.02.33-.02-1.15-.14-2.55-.3-3.74-.17l1.04-.17c-1.74-.2-1.39-.16-2.68-.4.61-.01,1.13.05,1.58,0-1.97-.18,2.3-.43.57-.47-.43-.14-1.52-.06-2-.15.2,0,.58.01.61-.01l-1.26-.11c.45-.04.87.1,1.42-.02-.94-.21-1.59-.33-.99-.5-.3-.24-2.51.1-2.26-.1,1.03-.03,2.25-.06,2.41-.19-.71-.07-1.51-.06-1.97-.18h1.58c-.07-.1-.36-.19.83-.19-.67-.09-.55-.15-.3-.19-.83-.16-3.2.12-3.82.16,1.18-.16.5-.27,2.4-.36l.42.14c1.95-.3-2.23-.29,1.11-.43-.12.1.72.23,1.59.17l-.81-.15c.42-.02.29.09.77.02-.35-.04-1.16-.13-1.68-.17h-.48s.22-.02.48,0h.1s-.27-.27-.27-.27c-.06.05.52.06.58.01l-.83-.18c.4.05.88,0,1.14-.08.48-.23-3.55-.18-1.94-.36-.03.03.16.03.13.06l.7-.09c-3.35-.02-.34-.54-3.69-.56,1.35-.13.81,0,2.39.16l.96-.14c.13.06-.13.1.2.16,1.41-.18-.37-.35-1.24-.45.48-.07,2.51.05,1.96-.14-.65-.28-2.44.05-2.84-.11l1.73-.12c-1.33-.21-.14-.37.08-.55-.14-.04-.32-.06-.51-.07,0,0,0,0-.01,0h-.2c-.53-.02-1.08.03-1.09-.08l1.09.07c.07,0,.14,0,.21,0,.75-.19-1.69-.4-1.13-.55.36.03,1.09-.08,1.51-.1l-1.07-.26c.46.12,1.45.11,2.42.13-.1-.08-.65-.12-.78-.18.35.03.71.07,1.16.02l-1.65-.27c-.17.02-.23.05-.28.07-.01-.07-.64-.22.17-.32.38,0,.74.04,1.13.05-1.1.08-.16.13.58.17-.17-.19.25-.05.96-.14-.04-.13-1.36-.19-2.2-.15.38-.15.64-.2-.36-.35l1.35.03-.43-.14,1.65.11c.92-.27-2.32-.05-1.56-.35h1.19c-.46-.12-2.46-.16-1.04-.25-.72-.11-1.68.19-1.92-.07.61-.05,1.06-.15,1.3-.22-.54-.08-1.41.06-1.25.12-.56-.4,4.07-.25,2.5-.6-.85.12-2.3-.1-2.26.19-.7-.14,1.72-.27.43-.42l1.52.09c.03-.05-.52-.11-.71-.14h1.17c-2.05-.17.98-.32-1.71-.43,2.12.07-.12-.13.7-.2,1.49.15-.04.42,1.91.44.53-.06-.17-.12.08-.17-.16-.05-.31-.1-.47-.15-1.04-.03.04-.11-1.3-.17.83-.1.06-.17.02-.25-.38-.12-.75-.25-1.14-.37-1.61-1.34-2.33-3.49-2.07-5.57,1.64-12.87,6.57-25.9,15.98-35.57,5.46-5.35,8.32-12.02,7.64-20.17-7.04,13.3-24.58,14.95-29.36,29.54-1.21,4.83-16.93,39.26-10.13,41.43,0,0,8.65.86,19.13,4.33.04-.01.09-.02.14-.03ZM190.81,207.05l1.42-.02-1.45.05.03-.03ZM189.15,205.92s.03.02.01.04c-.03-.01-.03-.02-.01-.04-.06-.04-.24-.09-.19-.13,1.6-.01.32.04.19.13ZM189.61,208.55l.9-.09c-.07.05-.1.08-.51.09h-.39Z"/>
            <path class="cls-3" d="M195.14,214.73c.06.02.12.04.17.06.38,0,.71,0,.88.03l-1.05-.09Z"/>
            <path class="cls-3" d="M204.53,215.3l-1.19.03c.28.07.41.14.44.18.1-.02.32-.04.59-.07.23-.04.35-.08.16-.14Z"/>
            <path class="cls-3" d="M330.11,199.98c-15.62,35.88-27.65,53.5-48.52,72.67-4.25,3.9-5.4,3.14-7.35-1.93-11.36-27.85-21.8-57.44-42.11-80.22-6.64-8.1-10.85,5.41-14.07,10.19-1.68,4.85-4.37,5.67-7.49,5.13,0,0-1.74-.5-4.57-1.34-.71-.25-1.43-.51-2.15-.74-.48.17-1.27.36-.57.53-.17-.02-.41-.03-.55-.03,1.43.3-1.2.66-.49.73l-1.22.03c1.88.25,2.04.28,1.28.58-.2,0-.55-.04-.81,0,.9.07,1.81.15,1.56.35h-.39s.2.31.2.31c-3.77,0,2.3.55-1.78.65,1.1.06,1.45.3,1.97.4.24,0,.46.01.65.05-.26,0-.47-.01-.65-.05-.16,0-.33,0-.5.02,2.03.12-.63.36-.4.5.48.09,1.13.05,1.77.01-1.6.18,1.79.49,1.11.55-.16.13-1.44.05-2.28.08.36.19,3.41-.03,1.91.23-.16-.03-.3-.09-.52-.06-.32.1-4.65.28-3.78.37l.68-.07c.97.18-3.07.43-.53.46l1.18-.02c-1.57.31.46.13-.91.45h-.2c.23.13-1.25.21.65.28l.26-.05c.15.17,0,.19-.09.36.18.02.46.1.07.13,1.58,0,.73.4.63.48-.23-.14-.9-.07-1.55-.03,1.29.08,1.42.14.49.25,1.97.02,4.06.04,4.18.26-.3-.03-.46-.09-.87-.07-.41.02.04.07.19.09-.4.02-.72-.05-1.4-.02,1.88.15.13.26.8.47-.59-.07-.98,0-1.65.02,2.23.02-1.93.3.94.21-1.72.42-.13,1.08-1.98,1.24-.81.04.5.16.54.24h-.98c1.77.2.66.15,2.44.39-1.16-.1-1.7-.06-2.62.04l2.03.17-1.51.03c.59.07.35.14.11.22-.02-.04-.15-.02-.42-.01,2.1.04,1.85.33,2.85.38-2.04.07.52.2-1.4.25.29.02.52.06.72.09.89-.04,1.89-.05,1.46.02.02,0,.02.01.03.02l1.07-.03c1.1-.01-.32.08-1.23.17-.18.03-.4.06-.59.08,0,0,0,.02-.01.02-.03,0-.06,0-.06-.01-.28.04-.42.09-.01.15-1.82.24,2.49.53,0,.8.26-.04.37-.1-.06-.11.11.22-1.58.44-.67.58h1.11c.5.15.86.28.79.41h1.25c-.46.2,1.56.61-1.02.72,1,.05-.29.26.04.37l-.96.03s-.04.03-.06.04c.17.08.33.16.5.25.03,0,.07-.01.11-.02.63.06.52.12.2.18,2.62,1.34,5.21,2.87,7.66,4.62,2.41.69,7.14-1.29,13.86-19.46,19.13,21.32,32.46,49.38,37.39,77.24,2.62,14.82-48.06,33.78-54.92,40.89,49.85-13.83,97.16-48.93,125.33-93.68,7.63-8.49-1.96-18.48-4.13-28.56Z"/>
            <path class="cls-3" d="M201.04,217.07c.05.02.11.05.16.07.19-.03.32-.05.35-.05-.13,0-.31-.01-.51-.01Z"/>
            <path class="cls-3" d="M194.79,214.61c.72,0,1.48,0,1.71,0,.06-.06-1.11-.11-2.04-.12.11.04.22.07.33.11Z"/>
            <path class="cls-3" d="M193.74,214.25c.16.05.32.11.49.17.58-.07.41-.08,1.93-.19-.13-.04-1.7-.01-2.42.02Z"/>
          </g>
        </g>
        <g>
          <g>
            <path class="cls-4" d="M138.12,447.68h1.76v6.95h.06l5.76-6.95h2l-4.34,5.28,5.01,8.58h-1.97l-4.14-7.2-2.38,2.82v4.38h-1.76v-13.86Z"/>
            <path class="cls-4" d="M155.46,454.56c0-4.44,2.44-7.13,5.92-7.13s5.92,2.7,5.92,7.13-2.44,7.23-5.92,7.23-5.92-2.79-5.92-7.23ZM165.49,454.56c0-3.45-1.63-5.58-4.1-5.58s-4.1,2.13-4.1,5.58,1.63,5.68,4.1,5.68,4.1-2.23,4.1-5.68Z"/>
            <path class="cls-4" d="M175.62,459.73l1.06-1.21c1,1.04,2.38,1.72,3.82,1.72,1.82,0,2.9-.91,2.9-2.25,0-1.42-1-1.87-2.31-2.44l-1.99-.88c-1.29-.55-2.81-1.53-2.81-3.57s1.85-3.68,4.36-3.68c1.64,0,3.11.71,4.08,1.72l-.94,1.13c-.85-.8-1.87-1.3-3.15-1.3-1.55,0-2.58.78-2.58,2.02,0,1.33,1.21,1.83,2.29,2.29l1.98.86c1.6.69,2.86,1.64,2.86,3.71,0,2.19-1.81,3.94-4.72,3.94-1.95,0-3.64-.79-4.85-2.06Z"/>
            <path class="cls-4" d="M193.29,460.49l7.3-11.32h-6.64v-1.49h8.82v1.05l-7.3,11.32h7.37v1.49h-9.55v-1.05Z"/>
            <path class="cls-4" d="M211.7,455.81v-8.14h1.76v8.19c0,3.33,1.41,4.38,3.22,4.38s3.29-1.05,3.29-4.38v-8.19h1.69v8.14c0,4.45-2.15,5.98-4.98,5.98s-4.98-1.53-4.98-5.98Z"/>
            <path class="cls-4" d="M231.71,447.68h1.76v12.37h6.05v1.49h-7.81v-13.86Z"/>
            <path class="cls-4" d="M248.32,447.68h1.76v6.95h.06l5.76-6.95h2l-4.34,5.28,5.01,8.58h-1.97l-4.14-7.2-2.38,2.82v4.38h-1.76v-13.86Z"/>
            <path class="cls-4" d="M266.88,447.68h1.76v13.86h-1.76v-13.86Z"/>
            <path class="cls-4" d="M288.86,448.04c0-.68.52-1.12,1.2-1.12s1.2.44,1.2,1.12-.52,1.12-1.2,1.12-1.2-.47-1.2-1.12ZM289.18,451.27h1.74v10.27h-1.74v-10.27Z"/>
            <path class="cls-4" d="M310.63,454.62c0-4.47,2.69-7.2,6.36-7.2,1.92,0,3.19.87,4,1.71l-.97,1.15c-.7-.72-1.59-1.31-2.98-1.31-2.79,0-4.59,2.15-4.59,5.6s1.65,5.67,4.6,5.67c.99,0,1.95-.3,2.5-.81v-3.61h-2.93v-1.46h4.54v5.83c-.89.93-2.41,1.61-4.27,1.61-3.66,0-6.26-2.67-6.26-7.17Z"/>
            <path class="cls-4" d="M333.57,447.68h1.99l4.69,13.86h-1.87l-2.42-7.74c-.5-1.55-.94-3.07-1.39-4.67h-.08c-.43,1.61-.87,3.12-1.37,4.67l-2.44,7.74h-1.79l4.69-13.86ZM331.34,455.91h6.38v1.41h-6.38v-1.41Z"/>
            <path class="cls-4" d="M348.46,447.68h3.47c4.26,0,6.55,2.48,6.55,6.88s-2.29,6.98-6.47,6.98h-3.54v-13.86ZM351.79,460.09c3.24,0,4.86-2.03,4.86-5.53s-1.62-5.43-4.86-5.43h-1.57v10.97h1.57Z"/>
            <path class="cls-4" d="M366.41,460.49l7.3-11.32h-6.64v-1.49h8.82v1.05l-7.3,11.32h7.37v1.49h-9.55v-1.05ZM370.2,445.32c0-.66.52-1.12,1.2-1.12s1.2.47,1.2,1.12-.52,1.15-1.2,1.15-1.2-.47-1.2-1.15Z"/>
            <path class="cls-4" d="M385,447.68h7.99v1.49h-6.22v4.34h5.25v1.49h-5.25v5.04h6.44v1.49h-8.2v-13.86Z"/>
            <path class="cls-4" d="M405.36,449.17h-4.19v-1.49h10.15v1.49h-4.19v12.37h-1.76v-12.37Z"/>
            <path class="cls-4" d="M422.08,456.17l-4.17-8.49h1.88l1.79,3.91c.44,1.02.86,1.99,1.34,3.02h.08c.48-1.04.96-2,1.38-3.02l1.79-3.91h1.83l-4.17,8.49v5.37h-1.76v-5.37Z"/>
          </g>
          <g>
            <line class="cls-1" x1="98.85" y1="455.55" x2="125.5" y2="455.55"/>
            <line class="cls-1" x1="437.02" y1="455.55" x2="463.66" y2="455.55"/>
          </g>
        </g>
      </g>
    </g>
  </g>
</svg>