<?xml version="1.0" encoding="UTF-8"?>
<svg xmlns="http://www.w3.org/2000/svg" version="1.1" viewBox="0 0 566.93 238.36">
  <defs>
    <style>
      .cls-1 {
        fill: #bfbfbf;
      }
    </style>
  </defs>
  <!-- Generator: Adobe Illustrator 28.7.1, SVG Export Plug-In . SVG Version: 1.2.0 Build 142)  -->
  <g>
    <g id="Layer_1">
      <g>
        <path class="cls-1" d="M130.84,162.44h-59.61c-1.53,0-3.17-.18-4.93-.54-1.76-.36-3.5-.92-5.21-1.68-1.72-.76-3.36-1.75-4.93-2.96-1.57-1.21-2.96-2.67-4.16-4.39-1.21-1.72-2.17-3.71-2.89-5.97-.72-2.27-1.08-4.82-1.08-7.66v-44.74c0-1.53.18-3.17.54-4.93.36-1.76.92-3.5,1.68-5.21.76-1.72,1.76-3.36,2.99-4.93,1.23-1.57,2.7-2.96,4.42-4.16,1.72-1.21,3.7-2.17,5.94-2.89,2.25-.72,4.79-1.08,7.63-1.08h59.61v16.52h-59.61c-2.16,0-3.81.57-4.96,1.72-1.14,1.14-1.72,2.84-1.72,5.08v44.61c0,2.12.58,3.76,1.75,4.93,1.16,1.17,2.81,1.75,4.93,1.75h59.61v16.52Z"/>
        <path class="cls-1" d="M163.13,108.55h58.02v-37.24h16.52v91.13h-16.52v-37.24h-58.02v37.24h-16.52v-91.13h16.52v37.24Z"/>
        <path class="cls-1" d="M273.65,162.44h-16.52v-91.13h16.52v91.13Z"/>
        <path class="cls-1" d="M376.67,162.44h-75.37c-1.19,0-2.29-.21-3.3-.64-1.02-.42-1.9-1.01-2.64-1.75-.74-.74-1.32-1.62-1.75-2.64-.42-1.02-.64-2.12-.64-3.3v-82.81h16.52v74.61h67.18v16.52Z"/>
        <path class="cls-1" d="M472.51,162.44h-75.37c-1.19,0-2.29-.21-3.3-.64-1.02-.42-1.9-1.01-2.64-1.75-.74-.74-1.32-1.62-1.75-2.64-.42-1.02-.64-2.12-.64-3.3v-82.81h16.52v74.61h67.18v16.52Z"/>
        <path class="cls-1" d="M499.58,79.63h-16.52v-14.93h16.52v14.93ZM499.58,162.44h-16.52v-68.7h16.52v68.7Z"/>
      </g>
    </g>
  </g>
</svg>