<?xml version="1.0" encoding="UTF-8"?>
<svg xmlns="http://www.w3.org/2000/svg" version="1.1" viewBox="0 0 566.93 566.93">
  <defs>
    <style>
      .cls-1 {
        fill: #8e8d8d;
      }
    </style>
  </defs>
  <!-- Generator: Adobe Illustrator 28.7.1, SVG Export Plug-In . SVG Version: 1.2.0 Build 142)  -->
  <g>
    <g id="Layer_1">
      <g>
        <g id="JYD4Cp">
          <g>
            <path class="cls-1" d="M138.11,146.52c3.25-11.24,6.48-22.48,9.74-33.72,1.32-4.56,2.54-9.17,4.17-13.63.42-1.14,2.12-2.36,3.37-2.53,2.86-.37,5.81.08,8.69-.17,2.9-.25,4.06.95,4.8,3.65,3.81,13.98,7.79,27.91,11.72,41.85.4,1.43.84,2.85,1.91,4.31.54-1.99,1.08-3.99,1.61-5.98,3.49-13.23,7.06-26.44,10.42-39.7.8-3.15,2.22-4.54,5.54-4.13,2.17.27,4.41.05,6.62.05,4.62,0,4.8.17,3.56,4.8-2.38,8.85-4.83,17.67-7.29,26.49-3.49,12.51-7.08,24.99-10.46,37.53-.74,2.73-1.97,3.83-4.83,3.65-3.59-.22-7.21-.2-10.8.01-2.45.15-3.48-.76-4.13-3.07-4.16-14.72-8.46-29.41-12.84-44.56-.4.96-.74,1.59-.93,2.27-3.96,13.82-7.96,27.63-11.81,41.49-.77,2.76-1.92,4.1-5.03,3.84-3.58-.3-7.2-.16-10.8-.03-2.04.07-3.21-.52-3.8-2.61-6.23-22.09-12.51-44.17-18.84-66.24-.82-2.86.07-3.8,2.97-3.62,3.13.19,6.28.18,9.41,0,2.59-.16,3.75.9,4.35,3.35,3.66,14.74,7.43,29.45,11.17,44.17.22.87.53,1.72.8,2.58l.72-.04Z"/>
            <path class="cls-1" d="M419.13,96.52q8.79,0,11.72,8.23c7.11,19.97,14.21,39.94,21.32,59.91,1.4,3.94,1.14,4.32-3.16,4.37-1.39.02-2.79,0-4.18,0q-7.97.02-10.47-7.46-1.92-5.76-7.95-5.77c-6.15,0-12.31.09-18.46-.02-2.07-.04-3.08.56-3.71,2.64-1.02,3.41-1.58,7.94-4,9.69-2.42,1.75-6.88.68-10.45.83-.7.03-1.39,0-2.09.03-2.81.09-3.43-1.16-2.49-3.71,2.73-7.39,5.36-14.81,8.04-22.22,5.04-13.94,10.2-27.85,15.05-41.86,1.21-3.5,2.73-5.4,6.64-4.71,1.35.24,2.78.04,4.17.04ZM419.24,116.81c-.3.02-.6.05-.89.07-2.76,8.39-5.53,16.78-8.36,25.36h17.69c-2.88-8.68-5.66-17.06-8.44-25.43Z"/>
            <path class="cls-1" d="M307.36,237.77c4.84,8.18,9.6,16.21,14.35,24.23-.13.4-.25.79-.38,1.19-1.86,0-3.78-.31-5.56.05-7.79,1.57-12.54-1.58-15.36-8.84-1.37-3.53-3.66-6.7-5.56-10.03-3.31-5.8-3.51-5.88-10.9-4.76,0,6.27,0,12.63,0,18.98q0,4.58-4.54,4.58c-10.05,0-9.97,0-9.94-10.08.06-18.45.1-36.9-.03-55.35-.02-3.17,1.05-3.84,4.02-3.76,8.24.22,16.48-.02,24.72.12,17.22.28,27.51,15.06,21.87,31.3-2.13,6.13-6.7,9.84-12.7,12.37ZM284.14,227.02c5.43-.32,10.44-.29,15.34-.99,4.34-.62,6.92-4.06,7.15-8.24.24-4.36-1.84-8.48-5.82-9.23-5.46-1.03-11.1-1.05-16.67-1.51v19.97Z"/>
            <path class="cls-1" d="M310.47,103.37c-2.2,3.23-4.23,6.06-6.08,8.99-1.2,1.9-2.38,1.91-4.32,1-3.33-1.57-6.76-3.28-10.32-3.87-2.92-.49-6.32-.01-9.11,1.06-5.18,2-5.63,8.02-.92,10.93,2.62,1.61,5.69,2.53,8.63,3.56,3.17,1.11,6.53,1.7,9.61,3,9.38,3.94,13.75,10.92,13.27,20.67-.48,9.55-5.69,16.64-15.26,19.31-12.68,3.55-24.81,2.7-35.36-6.39-2.33-2.01-2.72-3.71-.36-6.02,1.73-1.69,3.22-3.69,4.5-5.74,1.51-2.44,2.81-2.06,4.64-.38,4.54,4.17,9.94,6.37,16.14,6.22,1.83-.04,3.69-.43,5.44-.97,2.62-.81,4.35-2.62,4.72-5.46.39-2.95-.62-5.4-3.25-6.75-2.55-1.32-5.29-2.29-8.01-3.26-3.92-1.4-8.04-2.33-11.81-4.06-7.74-3.55-11.98-9.61-11.93-18.38.05-8.58,4.15-14.68,11.71-18.2,11.93-5.55,23.65-4.59,34.87,2.23,1.07.65,1.98,1.56,3.19,2.53Z"/>
            <path class="cls-1" d="M156.47,216.59c4.34-6.83,8.49-13.13,12.38-19.58,1.4-2.32,3.02-3.08,5.65-2.93,4.04.23,8.1.06,12.98.06-.87,1.83-1.31,3.2-2.09,4.33-6.13,9.02-12.25,18.07-18.57,26.96-1.5,2.11-1.29,3.43.12,5.41,6.69,9.35,13.22,18.8,19.77,28.25.73,1.06,1.19,2.3,2.12,4.14-5.87,0-10.95.14-16.02-.11-1.07-.05-2.33-1.36-3.04-2.4-4.6-6.68-9.07-13.44-13.79-20.5-4.56,6.99-9.05,13.7-13.32,20.54-1.14,1.83-2.34,2.51-4.45,2.44-4.58-.15-9.16-.05-14.6-.05,1.02-1.87,1.51-2.97,2.18-3.95,6.59-9.56,13.16-19.13,19.85-28.62,1.23-1.74,1.48-2.9.15-4.83-6.39-9.27-12.59-18.67-18.81-28.06-.52-.79-.66-1.84-.98-2.77.95-.27,1.9-.75,2.86-.77,3.83-.09,7.69-.25,11.49.08,1.43.13,3.27,1.2,4.04,2.4,4.11,6.45,7.95,13.07,12.07,19.95Z"/>
            <path class="cls-1" d="M83.25,207.97v14.02c6.47,0,12.81-.02,19.14,0,7.06.03,7.06.06,7.07,6.96,0,.81.01,1.63.02,2.44.01,4.23-.27,4.46-4.62,4.44-7.16-.03-14.32,0-21.58,0v13.45c8.16,0,16.14.01,24.12,0,4.92-.01,4.92-.04,4.94,5.01,0,1.39,0,2.79,0,4.18q0,4.77-4.61,4.76c-11.96-.02-23.93-.09-35.89.01-2.46.02-3.22-.76-3.22-3.16.05-20.9.05-41.8-.03-62.71,0-2.57.82-3.38,3.42-3.36,11.96.13,23.93.14,35.89,0,2.84-.03,3.55,1.05,3.6,3.66.21,10.3.28,10.3-10.09,10.29-6,0-12.01,0-18.18,0Z"/>
            <path class="cls-1" d="M352.79,207.96v13.98c4.71,0,9.31,0,13.91,0,3.02,0,6.04.07,9.05-.04,2.06-.07,2.98.67,2.92,2.81-.33,13.58,2.18,10.78-10.4,11.06-4.87.11-9.75.06-14.62.1-.2,0-.4.18-.81.37v12.84c1.18.08,2.18.19,3.18.2,6.62.01,13.23-.01,19.85,0q5.61,0,5.62,5.8.02,8.07-8.18,8.09c-10.56.02-21.13-.07-31.69.08-2.75.04-3.63-.77-3.62-3.53.1-20.66.12-41.32.02-61.98-.01-2.89.86-3.77,3.75-3.74,11.72.15,23.45.13,35.17.03,2.7-.02,3.9.53,3.88,3.63-.08,10.38.05,10.37-10.41,10.3-5.77-.04-11.55,0-17.63,0Z"/>
            <path class="cls-1" d="M217.6,240.72c0,6.76-.08,12.91.04,19.06.05,2.57-.86,3.58-3.45,3.44-2.9-.16-5.82-.16-8.71.01-2.2.13-2.9-.85-2.89-2.84.07-21.14.09-42.29.26-63.43,0-.97,1.27-2.78,1.95-2.78,10.09,0,20.28-.53,30.25.65,12.25,1.45,19.85,11.89,19.27,23.78-.73,14.91-11.94,21.4-22.1,22.06-4.72.3-9.48.05-14.61.05ZM217.64,228.14c5.08-.35,9.84-.3,14.45-1.1,4.87-.85,7.24-4.15,7.35-8.74.14-5.57-1.85-9.04-7.02-10.06-4.77-.94-9.76-.77-14.79-1.09v21Z"/>
            <path class="cls-1" d="M420.8,192.38c7.22-.24,13.73,1.84,19.75,5.74,2.11,1.37,3.06,2.57,1.04,4.88-1.98,2.26-3.18,5.95-5.55,6.87-1.91.74-5.04-1.78-7.66-2.76-4.22-1.58-8.52-2.27-12.92-.78-2.87.97-4.84,2.8-5.06,5.97-.21,3.02,1.73,4.86,4.17,5.8,4.54,1.73,9.22,3.08,13.85,4.56,5.33,1.7,10.02,4.3,13.13,9.16,5.65,8.83,3.03,21.71-5.61,27.61-10.56,7.22-29.09,6.34-38.98-1.83-3.89-3.22-3.9-3.53-.73-7.29,1.79-2.13,3.18-5.55,5.34-6.11,1.84-.48,4.48,2.41,6.86,3.62,5.11,2.6,10.46,3.82,16.12,2,2.87-.93,4.78-2.78,5.03-5.99.24-3.07-1.25-5.27-3.85-6.42-3.16-1.41-6.54-2.29-9.78-3.53-3.89-1.48-7.94-2.7-11.53-4.73-6.71-3.79-9.48-10.01-8.98-17.57.5-7.58,4.15-13.37,11.25-16.23,4.44-1.79,9.28-2.58,13.94-3.82.06.29.12.58.18.87Z"/>
            <path class="cls-1" d="M485.17,192.37c5.67-.11,11.84,1.94,17.53,5.65,2.13,1.39,2.98,2.7.95,4.94-1.47,1.62-2.66,3.52-3.82,5.39-1.24,2-2.54,2.25-4.54.95-4.73-3.08-9.91-4.41-15.56-3.4-3.88.69-6.45,2.91-6.75,6.03-.34,3.52,1.97,5.39,4.79,6.46,4.32,1.64,8.79,2.9,13.18,4.38,12.25,4.11,17.93,13.53,15.08,25.2-2.28,9.31-9.19,13.68-17.85,15.49-10.71,2.25-20.8.5-29.59-6.41-3.59-2.82-3.5-3.34-.51-6.87,1.86-2.19,3.42-5.6,5.7-6.19,1.86-.48,4.54,2.5,6.93,3.81,4.85,2.67,9.98,3.65,15.42,2.12,3.15-.88,5.43-2.58,5.67-6.17.23-3.58-1.82-5.71-4.79-6.91-3.32-1.34-6.85-2.15-10.18-3.48-3.85-1.53-7.94-2.85-11.3-5.17-10.35-7.18-10.18-23.38.02-30.81,4.82-3.51,11.53-5.36,19.62-5.03Z"/>
            <path class="cls-1" d="M343.74,121.67c4.84-1.58,9.2-3,14.13-4.61,0,4.33.13,8.12-.11,11.89-.05.75-1.37,1.72-2.31,2.08-3.78,1.45-7.63,2.71-11.58,4.07v19.31c.66.11,1.3.31,1.94.3,7.77-.02,15.55-.02,23.32-.15,2.57-.05,3.95.67,3.79,3.52-.14,2.54-.06,5.11,0,7.66.06,2.34-.88,3.28-3.32,3.26-12.53-.07-25.06-.07-37.59.05-2.93.03-3.77-1.06-3.76-3.9.09-21.59.11-43.17-.02-64.76-.02-3.19,1.1-4.09,4.03-3.89,2.66.18,5.35.2,8,.03,2.59-.17,3.53.84,3.49,3.4-.1,7.07-.03,14.14-.03,21.74Z"/>
            <path class="cls-1" d="M226.63,132.37c0-10.67.08-21.34-.05-32.01-.04-2.85.85-4.05,3.76-3.88,2.89.16,5.8.15,8.69,0,2.48-.13,3.24.95,3.23,3.28-.05,22.03-.06,44.05-.02,66.08,0,2.07-.75,2.99-2.82,2.97-3.13-.02-6.26-.02-9.39.11-2.55.11-3.45-.95-3.43-3.5.09-11.02.04-22.03.04-33.05,0,0-.01,0-.02,0Z"/>
            <path class="cls-1" d="M431.11,440.72c2.8-.78,4.47-.05,5.93,2.12,2.91,4.31,6.1,8.44,9.71,13.37v-15.45c3.54-1.07,5.05-.28,4.97,3.2-.13,6.04.05,12.08-.05,18.11-.02,1.1-.85,3.16-1.11,3.13-1.55-.19-3.62-.4-4.47-1.44-3.43-4.22-6.48-8.74-10.15-13.81v15.23h-4.85v-24.47Z"/>
            <path class="cls-1" d="M247.99,465.23c0-7.74-.04-15.26.06-22.77,0-.69,1-2,1.3-1.93,1.47.33,3.34.62,4.19,1.66,3.36,4.11,6.4,8.49,10.09,13.51,0-4.71.05-8.67-.02-12.63-.03-1.77.27-2.82,2.44-2.79,2.06.02,2.54.86,2.52,2.73-.07,7.3-.03,14.6-.03,22.08-2.73.84-4.49.3-6.1-2.23-2.74-4.29-5.94-8.28-9.35-12.97v15.35h-5.09Z"/>
            <path class="cls-1" d="M219.01,465.25c0-7.8-.06-15.43.12-23.04.02-.64,1.65-1.73,2.54-1.74.84,0,2.33,1.08,2.41,1.81.3,2.6.12,5.26.12,8.03h11.04c0-2.42.04-4.7-.01-6.97-.04-1.92.47-3.01,2.74-2.99,2.19.02,2.73.89,2.7,2.93-.1,7.28-.04,14.56-.04,22.03h-5.4v-9.51h-10.73v9.46h-5.48Z"/>
            <path class="cls-1" d="M424.63,453.32c-.03,7.47-5.23,12.56-12.81,12.54-7.48-.02-12.66-5.24-12.63-12.72.03-7.42,5.39-12.88,12.61-12.84,7.51.03,12.86,5.46,12.83,13.02ZM419.58,453.1c.01-4.83-3.05-8.14-7.56-8.16-4.61-.03-7.45,3.04-7.49,8.11-.04,4.81,2.8,8.1,7.07,8.16,4.72.07,7.97-3.23,7.98-8.11Z"/>
            <path class="cls-1" d="M212.11,453.46c.02,7.59-5.05,12.59-12.71,12.5-7.26-.08-12.44-5.27-12.5-12.55-.07-7.67,5.25-13.17,12.67-13.1,7.65.07,12.52,5.17,12.54,13.15ZM207.12,453.13c0-5.23-2.62-8.16-7.31-8.21-4.74-.05-7.4,2.83-7.42,8.04-.03,5.19,2.67,8.27,7.24,8.27,4.57,0,7.5-3.17,7.49-8.11Z"/>
            <path class="cls-1" d="M289.45,452.99c0-3.25.08-6.5-.03-9.74-.07-2.03.5-3.1,2.73-2.81,4.21.55,8.64.41,12.6,1.7,5.42,1.76,7.9,7.72,6.69,13.73-1.17,5.81-5.29,9.36-11.15,9.55-2.55.08-5.11-.1-7.65.09-2.72.21-3.39-1-3.24-3.48.18-3,.04-6.03.04-9.04ZM294.8,460.97c4.15.43,7.98.67,10.52-3.19,1.9-2.88,1.87-6.86-.08-9.51-2.68-3.66-6.49-3.38-10.44-2.94v15.64Z"/>
            <path class="cls-1" d="M332.23,456.48c1.73,2.82,3.4,5.53,5.23,8.5-3.77,1.01-6.08.56-7.84-2.85-1.14-2.2-1.58-6.05-6.13-5.07v8.14h-4.87v-24.92c4.53.24,8.99-.05,13.2.81,6,1.23,7.66,8.93,3.16,13.27-.82.79-1.81,1.39-2.76,2.11ZM323.61,452.96c3.12-1,5.71-1.6,8.04-2.75.49-.24.37-3.45-.12-3.65-2.4-.97-5.03-1.37-7.91-2.05v8.45Z"/>
            <path class="cls-1" d="M391.75,444.9c-.97,1.04-1.83,1.95-2.65,2.83-7.7-3.82-11.67-3.39-13.72,1.39-2.09,4.87.06,10.38,4.6,11.83,4.15,1.33,7.13-.21,8.27-4.41-1.57-1.46-6.83,1.33-5.04-4.43h10.14c.79,7.23-1.77,11.71-7.42,13.21-6.31,1.67-12.98-1.33-15.47-6.96-2.45-5.54-.54-12.59,4.31-15.87,5.31-3.59,12.26-2.72,16.99,2.4Z"/>
            <path class="cls-1" d="M366.52,464.91c-4.99,1.11-5.09,1.06-7.12-3.69-2.65,0-5.42-.07-8.19.05-.64.03-1.69.6-1.8,1.1-.86,3.78-3.44,3.34-6.62,2.71,2.94-7.92,5.76-15.73,8.78-23.46.7-1.81,5.48-1.87,6.18-.08,3.03,7.73,5.86,15.54,8.78,23.37ZM357.86,456.11c-1.02-3.07-1.95-5.88-3.15-9.5-1.2,3.71-2.11,6.55-3.06,9.5h6.21Z"/>
            <path class="cls-1" d="M112.57,439.58c.73-.11,1.28-.25,1.84-.25.56,0,1.12.14,1.92.26v8.89c2.27-.5,4.39-1.52,6.34-1.25,1.85.25,3.99,1.46,5.17,2.92,2.98,3.67,2.5,10.65-.5,13.95-2.43,2.67-6.52,2.91-9.65,1.08-2.03.49-3.4.81-5.13,1.23v-26.82ZM116.46,456.74c-.03,4.05,1.24,5.88,4.14,5.95,2.9.07,4.77-2.27,4.8-6.01.03-3.63-1.64-5.88-4.43-5.94-3.08-.07-4.47,1.78-4.51,6.01Z"/>
            <path class="cls-1" d="M136.15,471.88c3.9-1.01,5.25-3.58,3.87-7.46-1.89-5.33-3.81-10.64-5.78-16.14,2.71-1.04,4.41-1,5.22,1.97.91,3.33,2.1,6.57,3.45,10.69,1.31-3.9,2.53-7.08,3.43-10.34.71-2.6,1.98-3.77,5.19-2.64-.88,2.55-1.75,5.12-2.66,7.68-1.68,4.69-3.2,9.44-5.17,14.01-.81,1.88-2.33,3.78-4.04,4.88-2.57,1.66-3.75.6-3.5-2.64Z"/>
            <path class="cls-1" d="M179.85,440.72c0,6.4.22,12.64-.09,18.85-.17,3.5-2.7,5.52-6.13,6.15-3.27.6-6.18.09-8.22-3.08,1.23-1.8,2.18-2.96,4.73-1.68,2.64,1.33,4.23.12,4.33-2.88.14-4.4.06-8.8.05-13.21q-.01-4.71,5.33-4.14Z"/>
          </g>
        </g>
        <g id="BpimJK">
          <g>
            <path class="cls-1" d="M161.63,392.58c-2.6-9.1-5.14-18.01-7.72-27.07,2.77-.22,5.28-.46,7.81-.63,9.39-.6,18.78-1.14,28.16-1.78,11.5-.78,22.99-1.66,34.49-2.44,7.48-.51,14.97-.87,22.44-1.37,9.31-.63,18.62-1.34,27.92-1.99,6.91-.48,13.82-.9,20.73-1.38,9.38-.65,18.76-1.35,28.14-2.01,6.63-.47,13.26-.91,19.89-1.38,7.19-.52,14.38-1.08,21.56-1.59,8.67-.62,17.35-1.2,26.02-1.82,6.49-.46,12.97-.96,19.46-1.43,1.96-.14,3.92-.27,6.43-.43-2.36,3.26-4.31,6.25-6.54,9-8.15,10.05-16.25,20.14-24.65,29.98-5.21,6.1-11.21,11.42-18.81,14.52-5.21,2.12-10.66,3.32-16.28,3.23-8.69-.14-17.41-.19-26.06-.95-7.7-.68-15.33-2.29-22.99-3.48-.73-.11-1.46-.24-2.23-.57,33.66-4.61,65.08-15.88,95.25-30.96-.07-.21-.13-.42-.2-.64-2.87.84-5.73,1.69-8.6,2.52-17.52,5.08-35.19,9.53-53.21,12.42-11.69,1.88-23.42,3.66-35.19,4.97-10.25,1.14-20.57,1.87-30.88,2.22-22.78.78-45.57,1.16-68.35,1.8-11.81.33-23.62.85-35.43,1.28-.34.01-.69,0-1.17,0Z"/>
            <path class="cls-1" d="M147.26,363.95c-4.37-5.98-1.65-9.72,7.73-10.76.16-.98.4-2.01.5-3.04.34-3.53,2.87-6.63,6.39-6.85,5.28-.34,10.59-.24,15.89-.25,3.7-.01,5.46,2.47,6.69,5.51.26.65.42,1.34.69,2.25,9.45-.59,18.93-1.18,28.37-1.77,0-2.33.03-4.5,0-6.67-.02-1.27-.22-2.54-.2-3.81.03-2.08,1.18-3.38,3.23-3.43,6.44-.18,12.88-.38,19.31-.34,4.52.03,6.03,1.55,6.91,6.01.38,1.92.89,3.81,1.39,5.89,2.67-.21,5.26-.41,8.11-.63-1.96-4.33-2.32-8.71-.4-13.07,1.91-4.34,5.26-7.05,9.88-8.28-.97-5.81-1.87-11.51-2.89-17.19-1.1-6.14,2.97-11.1,9.23-11.11,5.59,0,11.19-.04,16.78.01,4.36.04,7.51,1.94,9.28,6.07,5.32,12.43,10.73,24.82,16.01,37.26.56,1.31,1.13,1.84,2.57,1.72,6.55-.52,13.12-.94,19.67-1.41,5.22-.37,10.43-.77,15.65-1.16,7.19-.53,14.38-1.07,21.57-1.57,6.91-.49,13.82-.92,20.73-1.4,6.98-.49,13.96-1.02,20.94-1.52,4.72-.34,9.44-.78,14.17-.98,3.61-.16,5.79,3.02,4.02,5.88-.59.96-2.07,1.78-3.22,1.91-5.06.54-10.15.79-15.23,1.16-7.4.54-14.8,1.11-22.21,1.63-6.7.47-13.4.88-20.1,1.36-7.05.5-14.1,1.06-21.15,1.57-6.77.49-13.54.93-20.31,1.4-7.26.51-14.53,1.03-21.79,1.54-6.91.48-13.82.96-20.74,1.44-7.26.5-14.53,1.01-21.79,1.51-7.27.5-14.53.98-21.8,1.47-7.69.52-15.37,1.05-23.06,1.57-7.06.47-14.11.93-21.17,1.41-7.83.53-15.65,1.09-23.48,1.62-6.91.46-13.83.98-20.75,1.3-2.66.12-4.43,1.16-5.46,3.76ZM298.68,327.43c-3.43-7.98-6.59-15.51-9.97-22.93-.44-.96-2.04-1.93-3.14-1.97-5.94-.22-11.89-.19-17.83-.17-2.24,0-3.58,1.78-3.22,3.95.82,4.93,1.36,9.93,2.52,14.78.82,3.42.74,6.14-2.46,8.14-.61.38-1.2.79-1.79,1.18-.31-.63-.63-1.27-.95-1.91-3.77,1.25-5.9,3.41-7.05,7.3,1.03.64,2.13,1.26,3.15,2,.38.28.57.84.84,1.27-.55.11-1.13.38-1.65.29-.94-.16-1.85-.54-2.77-.83-.21.11-.43.23-.64.34.74,2.06,1.44,4.14,2.25,6.16.13.31.79.56,1.21.57,3.45.11,5.75-1.65,6.68-4.96.59-2.1,1.19-4.2,1.92-6.25,1.75-4.92,4.81-7,10.03-7,7.49,0,14.97,0,22.86,0Z"/>
            <path class="cls-1" d="M160.63,402.07c6.5.47,13.3,1.5,20.06,1.3,5.41-.16,10.83-1.6,16.16-2.83,10.14-2.35,20.16-2.48,29.97,1.26,9.92,3.78,19.94,4.13,30.08,1.25,12.49-3.56,24.51-2.31,36.27,2.99,8.69,3.92,17.86,5.54,27.39,5.15.34-.01.68.03,1.05.2-3.56,1.74-7.36,2.46-11.26,2.84-7.73.75-15.25-.41-22.47-3.05-9.41-3.44-18.8-3.13-28.28-.63-11.22,2.96-22.3,2.97-33.2-1.4-9.57-3.83-19.28-3.7-29.07-1.08-12.55,3.36-24.3,1.55-35.33-5.22-.48-.29-.96-.58-1.43-.89-.1-.07-.13-.24.06.13Z"/>
          </g>
        </g>
      </g>
    </g>
  </g>
</svg>